<?xml version="1.0" encoding="utf-8"?>
<!-- Generator: Adobe Illustrator 19.0.0, SVG Export Plug-In . SVG Version: 6.00 Build 0)  -->
<svg version="1.1" id="Layer_1" xmlns="http://www.w3.org/2000/svg" xmlns:xlink="http://www.w3.org/1999/xlink" x="0px" y="0px"
	 viewBox="-114 -85 731 730" style="enable-background:new -114 -85 731 730;" xml:space="preserve">
<style type="text/css">
	.st0{clip-path:url(#SVGID_2_);}
	.st1{fill:#FEFEFE;}
	.st2{fill:#69459A;}
	.st3{fill:#9DCB54;}
	.st4{fill:#B4D87E;}
	.st5{fill:#D9D0E5;}
	.st6{fill:#BAAAD1;}
	.st7{fill:#FDFCFD;}
	.st8{fill:#FBFBFC;}
	.st9{fill:#F6F3F8;}
	.st10{fill:none;enable-background:new    ;}
</style>
<g>
	<defs>
		<rect id="SVGID_1_" x="-114" y="-43" width="731" height="646"/>
	</defs>
	<clipPath id="SVGID_2_">
		<use xlink:href="#SVGID_1_"  style="overflow:visible;"/>
	</clipPath>
	<g class="st0">
		<path class="st1" d="M120-42c164.5,0,329,0,493.5-0.1c3.7,0,4.6,0.8,4.6,4.6C618,159,618,355.5,618,552
			c-5.7,1.8-11.5,0.5-17.2,0.1c-10.9-0.8-21.9-1.6-32.8-2.5c-24.6-2-49.1-4.7-73.4-8.2c-21.6-3.2-43.1-7-63.8-14.2
			c-4.1-1.4-8.2-2.9-12-4.9c-6.7-3.4-11.9-7.9-14.1-15.8c-2.3-8-6.4-15.3-9.1-23.3c-6.7-19.6-8.4-39.7-5.7-60.1
			c0.1-0.8,0.1-1.7,0.4-2.5c0.5-1.9,0.4-4.3,2.8-4.9c2.3-0.6,3.5,1.5,4.7,3.1c10.3,12.4,21.8,23.4,35.8,31.6
			c9,5.2,18.6,7.4,28.8,6.1c9.1-1.2,15.9-6.6,21.1-13.9c5.8-7.9,9.6-16.8,12.2-26.2c5.2-18.7,7.6-37.8,8.3-57.2
			c0.3-7.5,2.2-14.6,4.3-21.9c5.2-17.8,5.9-36,3.3-54.4c-2.3-16.5-6.6-32.3-16-46.4c-11.5-17.1-27.1-26-48.2-24.3
			c-7,0.6-13.9,1.7-20.5,3.9c-9.4,3.1-18.5-0.2-27.6-1.4c-1.8-0.3-3.6-0.9-5.3-1.5c-6.9-2.3-7.1-2.6-5.6-9.8
			c0.3-1.5,0.7-3.1-0.8-4.1c-1.4-1-3-0.7-4.2,0.3c-4.1,3.2-7.5,1.5-11.3-1c-11.3-7.4-23.4-12.8-37.2-13.2
			c-17-0.5-30.3,6.6-40.6,19.7c-9.7,12.3-15,26.7-18.6,41.7c-2.7,11.2-5.1,22.4-4.9,34c0.1,4.9,0.7,9.7,1.9,14.3
			c3.1,12.1,11.9,16.6,23.6,12.2c3.9-1.5,7.5-3.6,11-5.8c1.5-1,3.2-2.5,5-1.2c1.5,1.2,0.7,3.2,0.1,4.7c-5.1,13-1.1,24.5,5.5,35.6
			c5.4,9.2,11.4,18,16.7,27.3c5.6,9.9,9,20.4,10,31.7c0.4,4.9-0.3,9.7-2.8,14c-7.2,12-14.5,24-23.9,34.4c-2.7,2.9-1.1,3.7,1.5,4.7
			c12.1,4.9,23.8,10.5,34.5,17.9c1.1,0.8,2.2,1.5,3.2,2.4c1.9,1.6,5.1,2.9,4.3,5.6c-0.8,2.6-4.1,2.3-6.5,2.7
			c-6.3,0.9-12.5,1.9-18.3,4.8c-2.9,1.4-5.8,3.1-6.1,6.7c-0.2,3.9,2.6,5.8,5.6,7.5c13.6,7.6,26.4,16.2,37,27.8
			c4.7,5.1,8.6,10.6,10.5,17.4c1.2,4.4,0.1,6-4.5,5.7c-7-0.4-13.2-3.5-19.2-6.7c-11-6-21.2-13.3-31.8-19.8
			c-13.1-8-26.5-15.5-42.1-17.8c-8.4-1.3-16.8-2.7-25.3-2.6c-3.1,0-7.4,0.3-8.7-2.5c-1.5-3.3,2.7-5.2,4.8-7.4
			c5.9-6.1,12.4-11.7,16.3-19.5c2.2-4.4,4.7-8.9,0.8-13.5c-4-4.8-9.4-5.9-15.4-4.6c-0.8,0.2-1.6,0.5-2.4,0.8
			c-3.3,1.4-4.8-0.2-4.8-3.3c0-4.2-1.1-8.3-1-12.4c0.5-15.3-0.7-30.6-1.3-45.9c-0.6-16.6-1.2-33.2-2.5-49.8
			c-0.7-8.8-1.3-17.6-2.1-26.4c-1.7-18.8-9.4-34.9-21.1-49.4c-14.3-17.7-32.6-30.3-52.8-40.4c-4.9-2.4-5.6-1.9-5.6,3.7
			c0,13.8-0.6,27.7,1.8,41.4c0.2,1.3,0.2,2.7-0.1,4c-0.3,1.1-0.7,2.1-2.1,2.2c-3.9-2.2-5.4-6.2-7.2-9.9c-10.2-21.6-9.9-44.2-5.7-67
			c0.8-4.1,3.5-5.7,7.5-5.7c9.8-0.1,19.6,0.1,29.4-0.9c10.7-1.1,12.7-2.3,15-13c2.7-12.4,3.1-25.1,3.5-37.7c0.2-9,0.5-9.6,9-12.5
			c9.5-3.2,9.4-3.1,3.1-10.6c-7.2-8.5-14.3-17.1-19.4-27.2c-2.5-5.1-2.8-9.5,0.6-14.4c4.8-6.9,5-15.1,4.4-23.1
			c-1.2-15.7-5-30.9-9.9-45.8c-2.5-7.7-2.4-7.9,4.5-11.7c8.4-4.5,9-11.6,0.8-16.4c-21.5-12.6-44.3-21.4-69.3-24.1
			c-3.5-0.4-7-0.5-10.3-1.9C119.8-41,119.7-41.4,120-42z"/>
		<path class="st1" d="M618,558c0,13,0,26,0,39c-2,1.7-4.4,1.4-6.7,1.4c-62.2,0-124.3,0-186.5,0.1c-4.9,0-8.4-1.7-12-5
			c-28.8-25.9-60.5-46.8-97.6-59.2c-29.9-10-60.1-11-90.6-4.2c-44.7,9.9-82.6,32.1-115.5,63.4c-3.5,3.3-7.1,5-12,5
			c-67.8-0.1-135.7-0.1-203.5-0.1c-2.3,0-4.7,0.3-6.7-1.4c0-49,0-98,0-147c1.5-1.5,3.5-1.9,5.4-2.5c6.4-1.9,12.8-3.8,18.7-7.1
			c7.5-4.2,9.7-8.7,8.7-17.2c-4.3-37.1,2.7-72.3,17.8-106.1c12.5-28,29.9-52.5,50.7-75c8.8-9.4,18.3-18,27.9-26.4
			c5.5-4.8,7.2-4.3,10.3,2c5.5,11.4,11.1,22.8,16.2,34.4c1.4,3.2,2.8,4.7,6.7,3.1c9.5-3.9,19.2-3.1,28.9-0.4
			c15.3,4.4,28,13,39.6,23.6c13.3,12.2,25,25.8,35.3,40.7c0.5,0.7,0.9,1.4,1.4,2c1,1.3,2.1,2.9,4.1,2.1c2.1-0.8,1.5-2.8,1.2-4.3
			c-1.9-9.4-5.1-18.3-9.1-26.9c-9.3-20-22.1-37.5-37.2-53.5c-13.7-14.5-28.6-27.4-44.7-39c-5.8-4.2-6-4.7-2.5-10.9
			c10.8-19,12.4-39.4,9.2-60.5c-0.4-2.6-1.9-4.5-3.6-6.4c-8.7-10.2-12.4-22-10-35.2c1.9-10.3,8.5-12.6,17.2-6.7
			c2.6,1.8,5,3.8,7.2,5.7c0.9-0.4,1-0.9,0.9-1.3c-3.7-18.1,2.4-34.9,7.3-51.8c0.7-2.6,2.5-4.2,5.1-5.1c6.7-2.4,13.4-5.2,20-7.9
			c4.3-1.8,8.8-1.8,13.3-1.7c13.2,0.4,25.8-2.8,38.1-6.9c2.9-1,6.7-1.9,6.3-5.9c-0.4-4.1-4.4-3.8-7.1-4c-10.2-0.8-19.8,1.6-29.2,5.3
			c-2.3,0.9-4.7,1.7-6.9,3c-9.2,5.5-18.8,5.4-28.9,2.8C86.3,7.2,70-1.5,57.2-16.3c-4-4.7-3.7-6.3,2.1-8.7
			c21.1-8.9,42.9-12.9,65.8-10.6c25.3,2.5,48.7,10.5,70.7,23c1.2,0.7,2.4,1.2,3.4,2.1c2.7,2.4,2.7,4.8,0,7.2c-2,1.8-4.5,2.8-7,3.7
			c-5.6,2-5.6,2-3.6,7.7c4.9,14.2,9.1,28.6,11.2,43.5c0.9,6.6,0.8,13.3,0.2,19.9c-0.3,3.5-1.6,6.8-3.8,9.6
			c-3.4,4.3-3.4,8.9-1.5,13.7c3.3,8.7,8.8,16,14.3,23.4c1.6,2.1,3.3,4.2,5,6.2c3.2,4,3,5.9-2,7.1c-7.4,1.8-8.6,6-8.9,12.9
			c-0.7,13.6-0.6,27.3-3.6,40.7c-1.4,6.3-2.2,7.5-8.7,8.4c-11.2,1.6-22.5,1.9-33.9,1.7c-7.7-0.1-7.8,0-9.4,7.8
			c-3.7,19-4.6,38,0.9,56.9c4.5,15.4,12.7,28.4,26.1,39c0.3-3.1-0.7-5.3-1.3-7.5c-4.2-16.2-5.8-32.8-5.5-49.5
			c0.1-6.9,1.6-8.1,7.7-4.7c26.2,14.8,48.6,33.5,60,62.5c3.9,9.9,5.1,20.3,6,30.8c2,22.4,2.9,44.8,3.7,67.3
			c0.6,14.8,1.7,29.6,1.3,44.4c-0.2,6.8,0.4,13.6,1,20.4c0.1,1.5,0.1,3.1,1.8,3.8c1.7,0.6,2.8-0.6,3.9-1.7c3.5-3.4,7.3-6,12.5-4.1
			c5.3,1.9,6.9,5.4,4.6,10.6c-2.3,5.1-5.7,9.4-9.5,13.4c-5.6,5.7-11.1,11.5-17.3,16.6c-1.5,1.2-4.3,2.3-3.3,5c1,2.7,3.7,1.6,5.7,1.6
			c16.2-0.6,32.3,0.6,48,4.8c13.4,3.6,24.9,11,36.5,18.3c10.8,6.9,21.3,14.3,33,19.8c5.7,2.7,11.6,4.2,17.8,4.8
			c5.3,0.6,7-1.3,6.5-6.6c-0.4-4.4-2-8.4-4.1-12.2c-5.3-9.7-13.1-17.2-21.7-23.8c-7.1-5.5-14.6-10.5-22.6-14.8
			c-2.2-1.2-4.9-2.3-4.5-5.3c0.3-2.7,3-3.4,5.1-4.2c7.4-2.8,15.2-3.6,23-4.7c5-0.7,5.7-2.2,3.1-6.5c-1.7-2.9-4-5.3-6.7-7.3
			c-8.7-6.6-18.1-11.9-28.1-16.2c-8.7-3.7-9.1-4.8-3.4-12.3c6.2-8.1,11.3-16.9,16.6-25.5c4.1-6.7,3.7-14,2.9-21.4
			c-1.9-16.4-10.2-30.1-18.8-43.6c-5-7.7-9.9-15.4-13.2-24c-1.8-4.6-2.4-9.3-1.3-14.2c2.6-11.9,6.9-22.5,16.1-31.4
			c19.1-18.5,34.9-39.8,49.4-62c3.7-5.7,4.1-5.9,10.4-3.8c15,5.1,29.8,6.7,45.6,2.2c18.5-5.3,35.9-2.5,49.8,12
			c12.2,12.7,17.9,28.7,21.1,45.6c0.9,4.7-0.1,6-4.5,4.8c-9.5-2.4-15.8,2.3-20.3,9.2c-13.2,20.3-33.8,30.7-54.4,40.9
			c-11.5,5.6-23.4,10.5-36.1,13.1c-4.7,0.9-8.3,0.1-11.9-3c-10.3-8.8-21.2-5.9-26.2,6.7c-7.6,18.8-0.5,36,19.1,43.9
			c7.8,3.1,11.6,9,15.8,15.2c1.3,2,1,4.1,0.5,6.3c-7.8,31.7-1.9,61.8,11.2,91c0.5,1.1,1.2,2.1,1.4,3.2c1.8,10.2,9.1,15.4,17.6,19.6
			c12.1,5.8,25.1,9.1,38.1,12c24.9,5.6,50.2,8.8,75.5,11.7c21,2.4,42.1,3.9,63.1,5.7c6,0.5,12,0.4,17.9,1.2
			C614.6,556.9,616.5,556.6,618,558z"/>
		<path class="st1" d="M-113,443c0-161.7,0-323.3,0-485c72.7,0,145.3,0,218,0c0.3,0.5,0.3,1-0.1,1.4c-9,2.2-18.4,2.6-27.4,5
			c-8.2,2.3-16.2,5.1-23.9,8.8c-6.1,3-6.4,4.4-2.2,9.6C63.8-1.3,80.2,8.7,99.4,14.4c2.7,0.8,7.3,0.3,7.6,3.5c0.3,3.7-4.4,4-7.2,4.9
			c-5.7,1.8-8.8,5.2-10.3,11c-3,11.9-6.7,23.7-7.3,36.2c-0.2,4.6-1.3,5.3-5.6,4.2c-11.3-2.8-17.9,1.6-19.1,13.3
			c-1.3,13.5,1.7,25.8,10.6,36.4c1.6,2,3.1,4,3.5,6.5c3.4,22,0.4,42.8-12.4,61.5c-2.9,4.2-3,4.1,1.3,7.1
			c30.2,20.8,56.6,45.4,76.5,76.5c5,7.7,9.2,15.8,12.6,24.4c0.2,0.5,0.4,0.9,0.5,1.4c0.4,1.6,1.4,3.7-0.3,4.6
			c-1.8,0.9-2.8-1.2-3.8-2.5c-10.2-13-21.3-25.2-34.5-35.2c-12.3-9.4-25.5-16.9-41.2-19.1c-6.2-0.9-12.3-0.7-18.3,1.1
			c-4.1,1.3-6.3-0.1-7.9-3.7c-5.4-12-11.2-23.8-16.7-35.7c-2.5-5.5-3.5-5.9-8.4-2.2c-18.4,14-34.5,30.4-48.9,48.3
			C-50,281.9-66,309.4-75.6,340.4c-5,16-8,32.2-9.4,48.9c-1,12.4-0.3,24.6,1,36.8c0.4,3.7-0.8,6.6-3.8,8.7c-6.7,4.6-14.1,7.4-22,9.1
			C-110.9,444.1-112.1,443.9-113,443z"/>
		<path class="st2" d="M-113,443c8.3-1.1,16.1-3.9,23.3-8.2c3.8-2.3,5-5.3,4.4-10.1c-3.7-30.2-0.1-59.8,9.6-88.6
			c13.9-41.2,38-76,68.6-106.5c8.3-8.2,17-16,26.3-23.1c5.2-3.9,6.3-3.5,9,2.3c5.9,12.8,12,25.6,18,38.4c0.8,1.6,1.4,2.6,3.7,1.9
			c16.2-4.8,31.3-0.8,45.7,6.8c18.6,9.8,36.6,26.5,54.2,49.8c0.8-2.3-0.6-3.9-1.3-5.6c-10.8-26.2-28-47.9-48.2-67.4
			c-13.4-13-27.8-24.8-43.6-34.9c-2-1.3-2.9-1.9-0.8-4.3c9.2-10.3,13.3-22.9,15.1-36.3c0.6-4.1,1-8.3,0.8-12.4
			c-0.4-8.5-0.9-16.5-7.2-24c-8.3-9.9-10.2-22.7-8-35.5c2.2-13.1,9.8-16.9,22-11.9c0.4,0.2,0.9,0.3,2,0.5c0.6-7.9,1.3-15.5,3.2-23
			c0.4-1.5,0.6-2.9,1-4.4c1.8-6.4,3.1-13,5.7-19.1c2.9-6.9,11.4-5,16.3-9.3c-0.2-1.6-1.6-1-2.6-1.3C82.3,11.7,63.8,0.8,49.7-17
			c-5.1-6.4-5-6.5,2-10.2C68.4-35.9,86.3-40,105-41.1c5-0.6,10.1-0.6,15.1,0c29.4,1.6,56.3,10.9,81.5,25.7c8,4.7,7.7,12.6-0.4,17.7
			c-2.4,1.5-6.7,1.1-7.1,4.5c-0.3,2.6,1.4,5.4,2.3,8.1c5,15.7,9.2,31.6,9.4,48.3c0.1,8.2-0.8,16.3-6.6,23c-1.4,1.6-1,3.4-0.4,5.2
			c1.6,5.7,4.9,10.5,8.1,15.4c6,8.8,13.1,16.7,20.8,25.1c-5.3,1.9-10,3.8-14.9,5.2c-3.7,1-4.9,2.9-4.9,6.7c0,14.6-0.5,29.3-3.9,43.6
			c-2.2,9.4-4.2,10.8-13.9,11.8c-10.8,1.1-21.6,1.2-32.4,1.4c-2.1,0-4.2-0.5-4.8,2.8c-5.1,26-5,51.3,9.3,74.8c0.6,1,1.3,1.9,2,2.9
			c2,0.2,1.4-0.9,1-2c-2.4-16.5-3.1-33.1-2.3-49.8c0.1-2-0.1-3.8,2.9-2.4c32.9,15.3,60.5,36.2,74.5,71.3c4.9,12.3,5.6,25.3,6.5,38.2
			c2.4,35.7,3.8,71.5,4.6,107.3c0.1,4.7,0.4,9.3,0.7,14.4c6-3.5,12-4.2,18.1-0.9c6.3,3.4,8.1,8.3,5.4,15.1
			c-2.3,5.6-5.8,10.5-10,14.8c-4.7,4.9-9.7,9.4-15.5,15c13,1,24.6,1.6,36,3.5c15.2,2.6,28.6,9.7,41.5,17.7c10,6.2,19.9,12.7,30,18.8
			c6,3.6,12.4,6.5,19.3,7.9c5.5,1.1,6.3,0.1,4.6-5.1c-1.9-5.6-5.1-10.4-9-14.8c-10.6-11.8-23.6-20.5-37.3-28.1
			c-3.6-2-7.1-4.2-6.9-8.9c0.1-5,4-7,7.9-8.7c7.6-3.2,15.8-4,24.8-5.4c-6.9-7.3-15-11.5-23-15.9c-8.1-4.4-16.7-7.8-25.7-11.5
			c10.3-9.8,16.9-21.9,24.8-33c6.2-8.7,6.4-17.8,4.5-27.6c-1.9-9.8-6.1-18.6-11.2-27c-3.6-6-7.4-11.9-11.1-17.8
			c-9-14.1-15.6-28.6-6.3-46.4c-5.2,3-9.1,5.5-13.1,7.5c-15.8,7.8-26.9,1.7-29.7-15.8c-2-12.4-0.3-24.5,2.1-36.6
			c3.1-15.2,7.5-30,15.8-43.4c16.2-26.2,42.1-34.3,70.3-21.9c6.1,2.7,12,5.9,17.3,10c1.9,1.5,3.4,1.8,5.1-0.1
			c0.7-0.7,1.6-1.2,2.5-1.7c2-1.1,4.2-1.7,6-0.1c1.8,1.5,1.3,3.7,0.8,5.6c-1.8,6.8-1.9,7,5,8.8c12.6,3.3,25.1,5.4,38.2,1.1
			c12.2-4,24.9-4,37.2,0.7c15.4,5.9,25.1,17.6,32,32c6.2,12.7,9.1,26.3,10.9,40.3c2.1,15.6,2.4,31.4-2.5,46
			c-6.7,20-4.8,40.8-8.6,60.9c-2.8,14.9-5.7,29.8-13,43.3c-12.2,22.5-32.1,28.5-54.8,16.4c-15.1-8.1-26.9-20-37.8-32.9
			c-0.9-1-1.7-2.1-2.6-3c-0.2-0.2-0.6-0.2-1.3-0.4c-3.3,12.7-3.4,25.6-2.1,38.5c1.7,16.7,8.3,32,13.6,47.8
			c4.7,14.2,15,19.3,27.1,23.5c22.9,7.9,46.8,11.7,70.6,15.1c37.9,5.4,76.1,8.3,114.3,10.7c0.7,0,1.3,0.3,1.9,0.4c0,2,0,4,0,6
			c-24-0.8-47.9-2.9-71.7-5.2c-29.5-2.9-58.9-6.5-87.9-12.8c-12.4-2.7-24.6-5.7-36.3-10.6c-10.7-4.5-19.3-10-23.3-22.5
			c-4.4-13.7-10.6-26.9-13.3-41.2c-3.4-17.8-3.3-35.4,1-53c0.8-3.3,0.1-5.5-1.6-8.2c-3.7-5.9-8.3-10-15-12.8
			c-11.4-4.8-19.7-13-21.4-26.1c-1.1-8.6,0.9-16.7,5.4-23.9c5.7-9.1,16.1-10.7,24.5-3.4c5.1,4.4,9.8,4.5,15.5,3
			c18.8-4.9,36.1-13.4,52.9-23c13-7.5,25-15.9,32.9-29.1c0.1-0.1,0.2-0.3,0.3-0.4c6.2-8.7,13.9-13.4,25.9-8.5
			c-5-23.5-11.2-45.1-32.7-57.9c-12.4-7.4-26-7.2-39.2-3c-16.1,5-31.2,2.2-46.4-3.1c-2.8-1-4.2-1.1-5.9,1.7
			c-16.5,25.8-36,49-56.9,71.4c-8.9,9.5-13.2,23.2-8.4,37.2c2.7,8.1,7.7,15.1,12.2,22.3c6.9,11,14,21.9,17.7,34.5
			c2,6.9,3,14,2.7,21.2c-0.2,4.6-1.3,8.7-3.8,12.7c-6.1,9.7-12,19.6-19.2,28.6c-2.1,2.7-1.6,3.5,1.3,4.8c11.6,5,23,10.6,33,18.5
			c3.5,2.8,6.8,6,8.4,10.4c1.1,3.2,1.1,5.4-3.6,5.7c-8.6,0.5-17.2,1.6-25.4,4.7c-1.7,0.6-4,1-4.3,3c-0.3,2.3,2.2,2.5,3.7,3.4
			c14.8,8.5,28.9,17.8,39.9,31.2c5.7,6.9,9.8,14.5,10.3,23.9c0.2,4.3-1.6,5.5-5.4,5.6c-8,0.2-15.4-2.2-22.5-5.6
			c-12.1-5.8-23.2-13.2-34.1-20.8c-24.3-17.1-51.5-22.4-80.5-21.5c-2.7,0.1-6,2.9-8.4-1.4c-1.2-2.3-1.1-3.2,0.9-4.8
			c8-6.3,15.5-13.2,22.1-20.9c2.5-2.9,4.8-6,6.7-9.3c1.6-2.6,3.8-5.7,0.6-8.5c-3.2-2.7-7-4-11-1.4c-1.5,1-3.2,2.1-4,3.6
			c-1.5,2.8-3.5,2.4-5.9,1.8c-2.6-0.6-2.2-2.6-2.2-4.3c-0.6-19.6-1-39.3-1.8-58.9c-1.2-28.3-1.9-56.6-5-84.7
			c-2.7-25.1-15.9-44.4-34.2-60.8c-9.9-8.8-20.8-16.1-32.5-22.2c-0.8-0.4-1.6-1.3-3.1-0.6c-0.7,22,1.7,43.8,7.7,65.4
			c-4.7-2.7-8.5-6-11.9-9.7c-18-19.6-22.9-43.3-21.5-69c0.4-8.1,1.8-16.2,3.5-24.2c0.9-4,2.6-5.2,6.7-5.1
			c12.7,0.4,25.3-0.3,37.9-1.6c4.2-0.4,5.7-2.5,6.4-6.2c2.6-13.5,3.1-27.1,3.6-40.7c0.4-11.2,0.2-11.3,10.6-15.1
			c1.1-0.4,2.1-0.8,3.6-1.4c-5.3-6.6-10.7-12.8-15.2-19.7c-2.5-3.8-4.8-7.6-6.6-11.8c-2.6-6.1-3.5-11.9,1.6-17.6
			c3.3-3.7,3.5-8.9,3.6-13.8c0.4-16.7-4-32.6-8.8-48.4c-1.4-4.6-2.9-9.2-4.8-13.6c-1-2.5-0.2-3.4,2-3.7c3.3-0.6,6.4-1.7,9.4-3.2
			c4.7-2.5,4.7-4.6,0.1-7.3c-12.2-7.2-25.1-13.1-38.7-17.2C124.8-37.9,91.6-37.9,59-23.5c-3.9,1.7-4,2.9-1.2,6
			c16.4,18.3,37,27.7,61.1,30.3c2.3,0.2,4.2-0.7,6.2-1.5c12-4.8,23.5-11.1,36.8-12c4-0.3,8-0.4,11.9,0.5c2.5,0.5,5,1.3,5.4,4.3
			c0.5,3.2-1.5,5-4.1,6.1c-10.7,4.9-22.2,8.3-33.7,8.3c-15,0-28.4,4.1-41.7,9.9c-2.4,1.1-3.7,2.4-4.4,4.8c-3.6,12-6.7,24-8,36.5
			c-0.6,6.4,1.1,12.5,2.1,19.2c-3.6-0.8-5.1-3.7-7.4-5.3c-4.3-3-8.6-7.9-14.2-5.3c-5.7,2.7-5.5,9.2-5.3,14.6
			c0.4,11.3,3,21.8,12.2,29.4c1.8,1.5,1.7,3.6,2,5.5c3.4,22.7,1.5,44.5-11.4,64.3c-1.2,1.8-1,2.7,0.8,3.9
			c14.4,9.7,27.8,20.7,40.1,33c25.8,25.7,47.2,54.2,55.2,90.8c0.5,2.3,0.9,3.9-1.9,5.1c-3,1.3-4.1,0-5.5-2.2
			c-12.4-18.1-26.1-35-43.3-48.8c-11.9-9.6-24.9-17.3-40.4-19.7c-7.8-1.2-15.7-1-22.9,2.9c-2.7,1.5-3.4,0.7-4.6-1.8
			c-6.1-13.3-12.6-26.4-18.7-39.7c-1.4-3.1-2.4-3.2-4.9-1.1c-47.7,40.1-82.9,88.1-95.7,150.3c-4.2,20.4-5,40.9-2,61.6
			c0.8,5.6-2.1,9.7-6.4,12.7c-8.4,6-18.3,8.5-28.3,10.6C-113,447.7-113,445.3-113,443z"/>
		<path class="st1" d="M416,604c-103.3,0-206.7,0-310,0c-0.4-0.4-0.4-0.9-0.2-1.5c7.6-9.4,17.1-16.7,26.6-24
			c29.1-22.5,61.3-38.5,97.7-45.6c37.2-7.3,72.7-2,106.9,14.1c27.2,12.8,51.5,29.8,73.9,49.7c2,1.8,4,3.5,5.4,5.9
			C416.4,603.1,416.4,603.6,416,604z"/>
		<path class="st3" d="M415.8,603.1c-23.6-22.2-49.4-41-78.8-54.8c-26.7-12.4-54.6-19.3-84.2-17.1c-36.3,2.6-69.4,15-100,34.4
			c-16.9,10.7-32.4,23.3-46.5,37.6c-1.5,0.5-3,0.3-4.5,0.3c-70,0-140,0-209.9,0c-1.6,0-3.3,0.4-4.9-0.5c0-2,0-4,0-6
			c27.5,0,55,0.1,82.5,0.1c43,0,86,0,128.9,0.1c3.4,0,5.8-1,8.3-3.4c35.1-33.8,75.8-57.2,124-66.4c38.7-7.4,75.4-1.1,110.7,15.8
			c27.6,13.2,52.3,30.5,74.6,51.3c1.6,1.5,3.1,2.7,5.6,2.7c65.5-0.1,130.9-0.1,196.4-0.2c0,2,0,4,0,6c-1.4,0.8-2.9,0.5-4.4,0.5
			c-64.6,0-129.2,0-193.8,0C418.4,603.5,417.1,603.7,415.8,603.1z"/>
		<path class="st4" d="M-113,603c70.8,0,141.6,0,212.3,0c2.3,0,4.7,0.1,7,0.2c0,0.3-0.2,0.5-0.3,0.8c-71.5,0-143,0-214.5-0.1
			C-110,603.9-111.9,605.1-113,603z"/>
		<path class="st4" d="M415.8,603.1c33.9,0,67.9-0.1,101.8-0.1c33.4,0,66.9,0,100.3,0c-0.9,2.1-2.7,0.9-4,0.9
			c-66,0.1-132,0.1-198,0.1C415.9,603.7,415.9,603.4,415.8,603.1z"/>
		<path class="st5" d="M120-41.1c-5,0-10.1,0-15.1,0c0.1-0.3,0.1-0.6,0-0.9c5,0,10,0,15,0C120-41.7,120-41.4,120-41.1z"/>
		<path class="st6" d="M165.1,278.9c0.9,1.1,1.5,2.4,0.4,3.4c-0.5,0.5-1.2-0.6-1.5-1.4C164.4,280.2,164.8,279.6,165.1,278.9z"/>
		<path class="st1" d="M508,299.1c-1.3,14.6-0.5,29.6-7.5,43.3c-1.3,2.6-1.1,6.2-1.3,9.3c-1,22.1-2.8,44.1-9.2,65.5
			c-2.1,7-4.9,13.8-9,19.9c-9.6,14.6-23.5,18.6-39.5,11.6c-10.4-4.5-19-11.6-27-19.4c-5.9-5.7-11.1-11.9-16.4-18.1
			c-2.5-3-3.1-5.5-1.6-9.3c8.5-22.7,22.6-41.3,40.2-57.6c19.8-18.4,42.4-32.7,66.8-44.1c1-0.5,2.1-0.9,3.2-1.3
			C506.9,298.8,507.3,299,508,299.1z"/>
		<path class="st1" d="M332.7,190.2c14.8,0.7,26.9,6.2,38.2,14c1.9,1.3,1.8,2.2,0.3,3.9c-21.3,22.8-37.7,48.8-52.7,76
			c-5.8,10.4-16.9,16.8-28.9,19.8c-5.4,1.3-9.3-1.4-11.4-7.3c-2.9-8.1-3.3-16.6-2.2-25.1c2.5-19.2,6.7-38,16.4-55
			c8.4-14.6,20.1-24.7,37.7-26.1C331.3,190.3,332.4,190.2,332.7,190.2z"/>
		<path class="st1" d="M389.7,399.9c-3.3-8.8-11-11.4-18.4-14.9c-15.8-7.6-20.3-21-13.4-37c3.5-8,10.5-10.4,16.6-4.5
			c6.9,6.8,14.2,5.9,22.1,3.8c15.4-4,29.7-10.6,43.7-17.9c0.8-0.4,1.6-0.8,2.8-0.7C420.3,348.5,401,370.8,389.7,399.9z"/>
		<path class="st7" d="M475.3,306.1c3.8-5,7.4-10.1,11.4-15c6.5-8,14.1-8.3,22.5-0.9c-5.8,2.7-11.5,5.3-17,8
			c-5.5,2.7-10.8,5.7-16.2,8.6C475.7,306.6,475.5,306.3,475.3,306.1z"/>
		<path class="st8" d="M338.7,263.4c10.4-18.1,22.5-35,37.2-50C365.7,231.8,352.8,248,338.7,263.4z"/>
		<path class="st9" d="M141.9,11.8c8-3.9,16.2-6.4,25.1-5.4C158.8,9.2,150.5,11.5,141.9,11.8z"/>
	</g>
</g>
<path class="st10" d="M-114-85"/>
</svg>
